<svg xmlns="http://www.w3.org/2000/svg" xmlns:xlink="http://www.w3.org/1999/xlink" width="75" height="75" fill="none" viewBox="0 0 75 75"><rect id="gift-open" width="75" height="75" x="0" y="0"/><g id="bottom"><path id="right" fill="#000" fill-rule="evenodd" d="M60.011 41.1581L60.011 51.1581C60.011 56.6809 55.5338 61.1581 50.011 61.1581L40.011 61.1581L40.011 41.1581L60.011 41.1581Z"/><path id="left" fill="#000" fill-rule="evenodd" d="M34.989 41.1581L34.989 61.1581L24.989 61.1581C19.4662 61.1581 14.989 56.6809 14.989 51.1581L14.989 41.1581L34.989 41.1581Z"/></g><g id="top"><rect id="cap" width="50" height="10" x="0" y="0" fill="#000" transform="matrix(0.965926,0.258819,-0.258819,0.965926,16.7919,13.5579)"/><path id="ribbon" fill="#000" fill-rule="evenodd" d="M17.2271 8.61353C17.2271 8.9928 17.237 9.4045 17.2474 9.83497C17.2588 10.3065 17.2707 10.8006 17.2707 11.2993C17.2707 13.2 17.0973 15.1669 16.0594 16.2048C14.8058 17.4584 12.291 17.3568 10.1172 17.269C9.58805 17.2476 9.07914 17.2271 8.61353 17.2271C3.85641 17.2271 0 13.3706 0 8.61353C0 3.85641 3.85641 0 8.61353 0C13.3706 0 17.2271 3.85641 17.2271 8.61353ZM8.61353 12.2271Q9.18007 12.2271 10.319 12.2731C11.1267 12.3057 11.7673 12.3171 12.2408 12.3072Q12.2655 11.8561 12.2655 11.1917Q12.2655 10.6458 12.2488 9.95571Q12.2271 9.0532 12.2271 8.61353Q12.2271 7.86514 11.9625 7.22635L11.9624 7.22632Q11.6978 6.58755 11.1687 6.05838Q10.6395 5.5292 10.0007 5.26461L10.0007 5.2646L10.0007 5.26459Q9.3619 5 8.61353 5Q7.86514 5 7.22635 5.2646Q6.58756 5.52919 6.05838 6.05838Q5.52918 6.58757 5.26459 7.22636L5.26458 7.22639Q5 7.86516 5 8.61352Q5 9.36191 5.2646 10.0007Q5.52919 10.6395 6.05838 11.1687Q6.58756 11.6979 7.22635 11.9625Q7.86514 12.2271 8.61353 12.2271Z" transform="matrix(-0.965926,-0.258819,-0.258819,0.965926,59.2044,12.1716)"/><path id="ribbon" fill="#000" fill-rule="evenodd" d="M17.2271 8.61353C17.2271 8.9928 17.237 9.4045 17.2474 9.83497C17.2588 10.3065 17.2707 10.8006 17.2707 11.2993C17.2707 13.2 17.0973 15.1669 16.0594 16.2048C14.8058 17.4584 12.291 17.3568 10.1172 17.269C9.58805 17.2476 9.07914 17.2271 8.61353 17.2271C3.85641 17.2271 0 13.3706 0 8.61353C0 3.85641 3.85641 0 8.61353 0C13.3706 0 17.2271 3.85641 17.2271 8.61353ZM8.61353 12.2271Q9.18007 12.2271 10.319 12.2731C11.1267 12.3057 11.7673 12.3171 12.2408 12.3072Q12.2655 11.8561 12.2655 11.1917Q12.2655 10.6458 12.2488 9.95571Q12.2271 9.0532 12.2271 8.61353Q12.2271 7.86514 11.9625 7.22635L11.9624 7.22632Q11.6978 6.58755 11.1687 6.05838Q10.6395 5.5292 10.0007 5.26461L10.0007 5.2646L10.0007 5.26459Q9.3619 5 8.61353 5Q7.86514 5 7.22635 5.2646Q6.58756 5.52919 6.05838 6.05838Q5.52918 6.58757 5.26459 7.22636L5.26458 7.22639Q5 7.86516 5 8.61352Q5 9.36191 5.2646 10.0007Q5.52919 10.6395 6.05838 11.1687Q6.58756 11.6979 7.22635 11.9625Q7.86514 12.2271 8.61353 12.2271Z" transform="matrix(0.965926,0.258819,-0.258819,0.965926,29.051,4.09205)"/></g></svg>